<svg xmlns="http://www.w3.org/2000/svg" xmlns:xlink="http://www.w3.org/1999/xlink" width="192" zoomAndPan="magnify" viewBox="0 0 144 143.999998" height="192" preserveAspectRatio="xMidYMid meet" version="1.0"><defs><clipPath id="eeb6945a05"><path d="M 17.09375 41 L 126.59375 41 L 126.59375 96.707031 L 17.09375 96.707031 Z M 17.09375 41 " clip-rule="nonzero"/></clipPath></defs><g clip-path="url(#eeb6945a05)"><path fill="#000000" d="M 17.203125 96.660156 C 17.164062 94.871094 17.207031 93.082031 17.335938 91.289062 C 17.472656 89.503906 17.699219 87.71875 18.011719 85.949219 C 18.648438 82.386719 19.632812 78.925781 20.960938 75.566406 C 22.304688 72.199219 23.964844 68.996094 25.941406 65.960938 C 26.925781 64.441406 27.988281 62.976562 29.125 61.570312 C 30.261719 60.160156 31.464844 58.808594 32.734375 57.515625 C 34.003906 56.222656 35.335938 54.992188 36.726562 53.824219 C 38.117188 52.664062 39.566406 51.574219 41.070312 50.554688 C 42.953125 49.28125 44.90625 48.128906 46.929688 47.09375 C 48.953125 46.0625 51.035156 45.160156 53.171875 44.386719 C 55.308594 43.613281 57.484375 42.976562 59.699219 42.472656 C 61.914062 41.96875 64.152344 41.605469 66.414062 41.378906 C 68.675781 41.152344 70.941406 41.070312 73.210938 41.125 C 75.484375 41.179688 77.742188 41.375 79.988281 41.714844 C 82.238281 42.050781 84.453125 42.523438 86.644531 43.136719 C 88.832031 43.746094 90.972656 44.492188 93.070312 45.371094 C 96.421875 46.785156 99.605469 48.511719 102.621094 50.554688 C 104.121094 51.574219 105.570312 52.664062 106.964844 53.828125 C 108.351562 54.988281 109.683594 56.21875 110.953125 57.515625 C 112.222656 58.808594 113.425781 60.160156 114.558594 61.566406 C 115.695312 62.976562 116.757812 64.4375 117.746094 65.957031 C 119.722656 68.992188 121.382812 72.195312 122.722656 75.5625 C 124.054688 78.921875 125.039062 82.382812 125.671875 85.9375 C 125.988281 87.710938 126.210938 89.492188 126.351562 91.285156 C 126.488281 93.074219 126.535156 94.867188 126.484375 96.652344 C 126.484375 96.6875 126.464844 96.703125 126.433594 96.703125 C 126.398438 96.703125 126.382812 96.6875 126.382812 96.652344 C 126.378906 93.070312 126.03125 89.519531 125.335938 86.003906 C 124.8125 83.371094 124.097656 80.792969 123.195312 78.265625 C 122.289062 75.738281 121.207031 73.292969 119.941406 70.925781 C 118.675781 68.558594 117.246094 66.300781 115.648438 64.144531 C 114.046875 61.988281 112.300781 59.964844 110.402344 58.066406 C 108.507812 56.171875 106.480469 54.425781 104.328125 52.828125 C 102.171875 51.230469 99.910156 49.800781 97.546875 48.535156 C 95.179688 47.273438 92.734375 46.191406 90.210938 45.289062 C 87.683594 44.386719 85.109375 43.675781 82.476562 43.15625 C 75.390625 41.761719 68.300781 41.761719 61.210938 43.15625 C 57.699219 43.847656 54.292969 44.878906 50.984375 46.25 C 47.679688 47.621094 44.535156 49.304688 41.558594 51.292969 C 38.582031 53.285156 35.828125 55.546875 33.296875 58.078125 C 30.761719 60.609375 28.5 63.367188 26.507812 66.34375 C 24.515625 69.320312 22.832031 72.460938 21.457031 75.769531 C 20.085938 79.078125 19.050781 82.492188 18.351562 86.007812 C 17.65625 89.523438 17.308594 93.074219 17.304688 96.660156 C 17.304688 96.695312 17.289062 96.710938 17.253906 96.710938 C 17.222656 96.710938 17.203125 96.695312 17.203125 96.664062 Z M 17.203125 96.660156 " fill-opacity="1" fill-rule="nonzero"/></g></svg>